<svg fill="#000000" viewBox="0 0 64 64" xmlns="http://www.w3.org/2000/svg"><g id="SVGRepo_bgCarrier" stroke-width="0"></g><g id="SVGRepo_tracerCarrier" stroke-linecap="round" stroke-linejoin="round"></g><g id="SVGRepo_iconCarrier"> <g id="a"></g> <g id="b"> <path d="M55.8325,17.7085c-.458-.4585-1.0679-.7109-1.7158-.7109,0,0-29.3912-.0083-29.4048-.0083h-.0015c-.006,0-.0109,.0032-.0168,.0034l-15.2341,.0044c-.6484,.0005-1.2578,.2529-1.7163,.7114-.458,.459-.7104,1.0684-.71,1.7163l.0015,7.0127c0,.1562,.0728,.3032,.1968,.3979,.124,.0942,.2847,.1255,.436,.084,.3438-.0947,.6836-.1426,1.0088-.1426h.0015c1.1689,0,2.2729,.5342,3.1079,1.5044,.854,.9922,1.3247,2.3159,1.3252,3.7275,.0005,1.4121-.4692,2.7368-1.3228,3.729-.835,.9712-1.939,1.5063-3.1089,1.5063h-.0044c-.3247,0-.6626-.0479-1.0034-.1421-.1523-.043-.3125-.0103-.436,.084-.1245,.0947-.1973,.2417-.1973,.3979l.002,7.0005c0,.6484,.2524,1.2578,.7114,1.7163,.458,.458,1.0669,.71,1.7148,.71h.001l44.6494-.0083c.6479,0,1.2578-.2524,1.7158-.7109,.4585-.459,.7109-1.0684,.7104-1.7163V19.4248c.0005-.6479-.252-1.2573-.7104-1.7163Zm-.2896,26.8667c0,.3813-.1479,.7397-.4175,1.0093s-.6279,.418-1.0088,.418l-25.6577,.0083h-.0005c-.646,0-1.2041-.4277-1.3745-1.0459l-.0845-3.4868c-.0073-.2764-.2324-.5103-.5122-.4878-.2759,.0068-.4941,.2358-.4878,.5122l.0841,3.4685c-.1555,.5779-.6484,.9778-1.2363,1.0349l-15.38,.0049h-.001c-.3809,0-.7388-.1484-1.0083-.4175-.2695-.2695-.418-.6274-.418-1.0088l-.002-6.3857c.2144,.0303,.4272,.0454,.6362,.0454h.0054c1.4658-.0005,2.8389-.6587,3.8667-1.8545,1.0093-1.1738,1.5649-2.7295,1.5645-4.3809s-.5571-3.2065-1.5674-4.3799c-1.0278-1.1943-2.4009-1.8521-3.8652-1.8521h-.002c-.2109,0-.4253,.0156-.6416,.0464l-.0015-6.3984c0-.3813,.1479-.7397,.4175-1.0093s.6279-.4185,1.0088-.4185l15.2725-.0044c.6393,.0092,1.185,.4374,1.3513,1.053l-.0837,3.4518c-.0063,.2764,.2119,.5054,.4878,.5122,.3013,.02,.5054-.2119,.5122-.4878l.084-3.467c.0233-.0889,.0668-.1663,.1052-.2468,.0287-.0601,.0474-.1265,.0837-.1813,.0511-.0772,.1201-.1378,.1844-.2029,.0438-.0443,.0789-.0971,.128-.1351,.0798-.0618,.1737-.102,.2654-.1458,.0479-.0229,.0891-.057,.1396-.0745,.1475-.051,.3051-.0793,.4687-.0793h.001l25.6572,.0083c.3809,0,.7393,.1484,1.0088,.418s.4175,.6279,.4175,1.0093v25.1504Zm-28.5439-11.0752l.001,4c0,.2759-.2236,.5-.5,.5-.2759,0-.5-.2236-.5-.5l-.001-4c0-.2759,.2236-.5,.5-.5,.2759,0,.5,.2236,.5,.5Zm0-7l.001,4c0,.2759-.2236,.5-.5,.5-.2759,0-.5-.2236-.5-.5l-.001-4c0-.2759,.2236-.5,.5-.5,.2759,0,.5,.2236,.5,.5Zm12.3521,.9873l-6.6577,9.5996c-.0967,.1396-.2529,.2148-.4111,.2148-.0981,0-.1978-.0288-.2847-.0894-.2266-.1572-.2832-.4688-.1255-.6958l6.6577-9.5996c.1572-.2261,.4688-.2832,.6958-.1255,.2266,.1572,.2832,.4688,.1255,.6958Zm-6.7393,2.5146c-.8271,0-1.5-.6729-1.5-1.4995-.0005-.4004,.1553-.7773,.439-1.0605,.2832-.2837,.6597-.4399,1.0605-.4399,.8267,0,1.5,.6724,1.5005,1.499v.0005c0,.8271-.6729,1.5005-1.5,1.5005Zm7.5,5.499v.0005c0,.8271-.6729,1.5005-1.5,1.5005s-1.5-.6729-1.5-1.4995c-.0005-.4004,.1553-.7773,.439-1.0605,.2832-.2837,.6597-.4399,1.0605-.4399,.8267,0,1.5,.6724,1.5005,1.499Zm12.8882-10.0039c0,.2759-.2236,.5-.5,.5l-9,.0029c-.2759,0-.5-.2236-.5-.5,0-.2759,.2236-.5,.5-.5l9-.0029c.2759,0,.5,.2236,.5,.5Zm0,6.5015c0,.2759-.2236,.5-.5,.5l-9,.0029c-.2759,0-.5-.2236-.5-.5,0-.2759,.2236-.5,.5-.5l9-.0029c.2759,0,.5,.2236,.5,.5Zm0,6.4985c0,.2759-.2236,.5-.5,.5l-9,.0029c-.2759,0-.5-.2236-.5-.5,0-.2759,.2236-.5,.5-.5l9-.0029c.2759,0,.5,.2236,.5,.5Z"></path> </g> </g></svg>