<svg fill="#000000" viewBox="0 0 100 100" version="1.1" xml:space="preserve" xmlns="http://www.w3.org/2000/svg" xmlns:xlink="http://www.w3.org/1999/xlink"><g id="SVGRepo_bgCarrier" stroke-width="0"></g><g id="SVGRepo_tracerCarrier" stroke-linecap="round" stroke-linejoin="round"></g><g id="SVGRepo_iconCarrier"> <g id="backpack"></g> <g id="camping"></g> <g id="transportation"> <g> <path d="M96,64.4c0-1.2-0.7-2.3-1.9-2.8l-2.6-1c-0.3-0.1-0.6-0.5-0.6-0.8L89,41.9c-0.6-5.6-5.3-9.9-11-9.9v-4h4 c0.3,0,0.5-0.1,0.7-0.3l6-6c0.3-0.3,0.4-0.7,0.2-1.1C88.8,20.2,88.4,20,88,20h-5c-0.3,0-0.5,0.1-0.7,0.3L80.6,22H80v-7 c0-1.7-1.3-3-3-3h-2V7c0-1.7-1.3-3-3-3H48c-1.7,0-3,1.3-3,3v5h-2c-1.7,0-3,1.3-3,3v7h-0.6l-1.7-1.7C37.5,20.1,37.3,20,37,20h-5 c-0.4,0-0.8,0.2-0.9,0.6c-0.2,0.4-0.1,0.8,0.2,1.1l6,6c0.2,0.2,0.4,0.3,0.7,0.3h4v4h-1.1c-5.1,0-9.5,3.4-10.8,8.4l-4.5,18 c-0.3,1.1-1.1,2-2.3,2.2l-12.5,2.8C8.6,63.8,7,65.9,7,68.2V80c-1.7,0-3,1.3-3,3v2c0,1.7,1.3,3,3,3h1h7h4.1c0.5,4.5,4.3,8,8.9,8 s8.4-3.5,8.9-8h34.1c0.5,4.5,4.3,8,8.9,8s8.4-3.5,8.9-8H93c1.7,0,3-1.3,3-3L96,64.4z M76,32h-4v-4h4V32z M50,32v-4h20v4H50z M47,7 c0-0.6,0.4-1,1-1h24c0.6,0,1,0.4,1,1v5H47V7z M42,15c0-0.6,0.4-1,1-1h3h28h3c0.6,0,1,0.4,1,1v7H42V15z M34.4,22h2.2l1.7,1.7 c0.2,0.2,0.4,0.3,0.7,0.3h2h38h2c0.3,0,0.5-0.1,0.7-0.3l1.7-1.7h2.2l-4,4H77h-6H49h-6h-4.6L34.4,22z M44,28h4v4h-4V28z M11.3,65.3 l2.7-0.6V69c0,0.6-0.4,1-1,1H9v-1.8C9,66.8,10,65.6,11.3,65.3z M8,86H7c-0.6,0-1-0.4-1-1v-2c0-0.6,0.4-1,1-1h7v4H8z M28,94 c-3.9,0-7-3.1-7-7s3.1-7,7-7s7,3.1,7,7S31.9,94,28,94z M80,94c-3.9,0-7-3.1-7-7s3.1-7,7-7s7,3.1,7,7S83.9,94,80,94z M93,86h-4.1 c-0.5-4.5-4.3-8-8.9-8s-8.4,3.5-8.9,8H36.9c-0.5-4.5-4.3-8-8.9-8s-8.4,3.5-8.9,8H16v-5c0-0.6-0.4-1-1-1H9v-8h4c1.7,0,3-1.3,3-3 v-4.7l7.8-1.7c1.9-0.4,3.3-1.8,3.8-3.7l4.5-18c1-4,4.6-6.9,8.8-6.9H43h6h22h6h1c4.7,0,8.5,3.5,9,8.1l1.9,17.8 c0.1,1.1,0.8,2.1,1.9,2.5l2.6,1c0.4,0.2,0.6,0.5,0.6,0.9l0,1.6h-3c-1.7,0-3,1.3-3,3v4c0,1.7,1.3,3,3,3h3l0,9 C94,85.6,93.6,86,93,86z M94,68v6h-3c-0.6,0-1-0.4-1-1v-4c0-0.6,0.4-1,1-1H94z"></path> <path d="M28,83c-2.2,0-4,1.8-4,4s1.8,4,4,4s4-1.8,4-4S30.2,83,28,83z M28,89c-1.1,0-2-0.9-2-2s0.9-2,2-2s2,0.9,2,2S29.1,89,28,89z "></path> <path d="M80,83c-2.2,0-4,1.8-4,4s1.8,4,4,4s4-1.8,4-4S82.2,83,80,83z M80,89c-1.1,0-2-0.9-2-2s0.9-2,2-2s2,0.9,2,2S81.1,89,80,89z "></path> <path d="M59,38H40.2c-2.4,0-4.4,1.6-4.9,3.9L31,60.8c-0.1,0.3,0,0.6,0.2,0.8S31.7,62,32,62h27c0.6,0,1-0.4,1-1V39 C60,38.4,59.6,38,59,38z M58,60H33.2l4-17.7c0.3-1.4,1.5-2.3,2.9-2.3H58V60z"></path> <path d="M78.3,38H65c-0.6,0-1,0.4-1,1v22c0,0.6,0.4,1,1,1h19c0.3,0,0.5-0.1,0.7-0.3s0.3-0.5,0.3-0.8l-1.7-18.3 C83.1,40,80.9,38,78.3,38z M66,60V40h12.3c1.6,0,2.9,1.2,3,2.8L82.9,60H66z"></path> <path d="M66,16c-0.6,0-1,0.4-1,1H55c0-0.6-0.4-1-1-1s-1,0.4-1,1v2c0,0.6,0.4,1,1,1s1-0.4,1-1h10c0,0.6,0.4,1,1,1s1-0.4,1-1v-2 C67,16.4,66.6,16,66,16z"></path> <path d="M64,7c-0.6,0-1,0.4-1,1h-6c0-0.6-0.4-1-1-1s-1,0.4-1,1v2c0,0.6,0.4,1,1,1s1-0.4,1-1h6c0,0.6,0.4,1,1,1s1-0.4,1-1V8 C65,7.4,64.6,7,64,7z"></path> </g> </g> <g id="navigation"></g> <g id="hotel"></g> <g id="money"></g> <g id="signpost"></g> <g id="ticket"></g> <g id="schedule"></g> <g id="beach"></g> <g id="mountain"></g> <g id="location"></g> <g id="traveling"></g> <g id="bonfire"></g> <g id="camera"></g> <g id="medicine"></g> <g id="drink"></g> <g id="canned_food"></g> <g id="nature"></g> <g id="map"></g> </g></svg>