<?xml version="1.0" encoding="utf-8"?><!-- Uploaded to: SVG Repo, www.svgrepo.com, Generator: SVG Repo Mixer Tools -->
<svg width="800px" height="800px" viewBox="0 0 64 64" xmlns="http://www.w3.org/2000/svg" stroke-width="3" stroke="#000000" fill="none"><path d="M20.61,43.86c.62.69,5.28,3.1,5.28,3.1a15.19,15.19,0,0,0,4.45,1.14c11.39,1,20.62-7,24.1-15.89a.49.49,0,0,0,0-.41C53.49,30,46,16.27,32.66,15.94s-21,13.77-22.08,15.81a.5.5,0,0,0,0,.49,49.49,49.49,0,0,0,7.78,9.62"/><circle cx="32.35" cy="31.87" r="6.91"/><line x1="54.48" y1="10" x2="10.74" y2="53.74"/></svg>