<svg width="24" height="24" viewBox="0 0 24 24" fill="none" xmlns="http://www.w3.org/2000/svg">
  <path d="M8 20V21C8 21.5523 7.55228 22 7 22H5C4.44772 22 4 21.5523 4 21V20M20 20V21C20 21.5523 19.5523 22 19 22H17C16.4477 22 16 21.5523 16 21V20M4 8H20V16H4V8ZM16 4H8C6.89543 4 6 4.89543 6 6V8H18V6C18 4.89543 17.1046 4 16 4ZM8 14C8 14.5523 8.44772 15 9 15H10C10.5523 15 11 14.5523 11 14V13C11 12.4477 10.5523 12 10 12H9C8.44772 12 8 12.4477 8 13V14ZM13 14C13 14.5523 13.4477 15 14 15H15C15.5523 15 16 14.5523 16 14V13C16 12.4477 15.5523 12 15 12H14C13.4477 12 13 12.4477 13 13V14Z" stroke="currentColor" stroke-width="2"/>
</svg>