<svg width="24" height="24" viewBox="0 0 24 24" fill="none" xmlns="http://www.w3.org/2000/svg">
  <path d="M15 9L9 15M15 15L9 9M5 7.2L5 16.8C5 17.9201 5 18.4802 5.21799 18.908C5.40973 19.2843 5.71569 19.5903 6.09202 19.782C6.51984 20 7.07989 20 8.2 20L15.8 20C16.9201 20 17.4802 20 17.908 19.782C18.2843 19.5903 18.5903 19.2843 18.782 18.908C19 18.4802 19 17.9201 19 16.8V7.2C19 6.0799 19 5.51984 18.782 5.09202C18.5903 4.71569 18.2843 4.40973 17.908 4.21799C17.4802 4 16.9201 4 15.8 4L8.2 4C7.0799 4 6.51984 4 6.09202 4.21799C5.71569 4.40973 5.40973 4.71569 5.21799 5.09202C5 5.51984 5 6.07989 5 7.2Z" stroke="currentColor" stroke-width="2"/>
  <path d="M14.5 12C14.5 12.8284 13.8284 13.5 13 13.5C12.1716 13.5 11.5 12.8284 11.5 12C11.5 11.1716 12.1716 10.5 13 10.5C13.8284 10.5 14.5 11.1716 14.5 12Z" fill="currentColor"/>
</svg>